<svg xmlns="http://www.w3.org/2000/svg">
  <symbol id="search" viewBox="0 0 17 17">
    <path d="M16.958 15.527L11.75 10.32A6.455 6.455 0 0 0 13 6.5 6.5 6.5 0 1 0 6.5 13a6.465 6.465 0 0 0 3.84-1.263l5.204 5.204 1.414-1.413zM6.5 11C4.02 11 2 8.98 2 6.5S4.02 2 6.5 2 11 4.02 11 6.5 8.98 11 6.5 11z"></path>
  </symbol>
  <symbol id="enter" viewBox="0 0 21 19">
    <path d="M6 14.875L12.917 9.5 6 4.125v2.917H-.042v4.917H6z"></path>
    <path d="M18 0H5C3.9 0 3 .9 3 2v2h2V2h13v15H5v-2H3v2c0 1.1.9 2 2 2h13c1.1 0 2-.9 2-2V2c0-1.1-.9-2-2-2z"></path>
  </symbol>
  <symbol id="cart" viewBox="0 0 21 20">
    <path d="M5.657 2.03L5.422 0H0v2h3.64l1.5 13h13.988l1.7-12.97H5.657zM17.372 13H6.922L5.888 4.03h12.66L17.372 13z"></path>
    <circle cx="6.984" cy="18" r="2"></circle>
    <circle cx="15.984" cy="18" r="2"></circle>
  </symbol>
</svg>
