<svg xmlns="http://www.w3.org/2000/svg" width="49" height="49" viewBox="0 0 49 49"><g fill="#323232"><path d="M24.5 0C10.97 0 0 10.97 0 24.5S10.97 49 24.5 49 49 38.03 49 24.5 38.03 0 24.5 0zm0 47C12.093 47 2 36.906 2 24.5 2 12.093 12.093 2 24.5 2 36.906 2 47 12.093 47 24.5 47 36.906 36.906 47 24.5 47z"/><path d="M34.81 19.342c.86-1.71 1.88-4.987.434-9.482a1 1 0 0 0-1.825-.182c-1.272 2.268-4.04 5.927-6.048 6.094-.03.002-.054.02-.083.024a16.242 16.242 0 0 0-2.79-.296c-.103 0-1.31.01-2.8.292-.026-.004-.046-.02-.072-.02-2.004-.168-4.773-3.828-6.048-6.096a1 1 0 0 0-1.824.183c-1.448 4.495-.427 7.772.433 9.483-1.745.22-3.955.778-4.758 2.19-.388.68-.38 1.463.024 2.2.514.94 1.4 1.245 2.334 1.245.816 0 1.668-.233 2.35-.482-.005.54.025 1.08.128 1.612.288 1.496 1.13 3.636 1.748 5.197.188.48.396 1.004.51 1.324-.236.614-.673 1.812-.767 2.484-.113.8.113 2.147 1.12 3.306 1.443 1.66 4.006 2.5 7.62 2.5 3.61 0 6.175-.84 7.618-2.5 1.007-1.158 1.233-2.505 1.12-3.306-.093-.673-.53-1.87-.766-2.484.114-.32.32-.843.51-1.32.616-1.563 1.46-3.704 1.75-5.2a8.483 8.483 0 0 0 .134-1.61c.68.247 1.528.48 2.342.48.936 0 1.82-.307 2.334-1.246.404-.737.412-1.52.024-2.2-.8-1.41-3.01-1.968-4.755-2.188zm-.952-6.634c.428 3.06-.477 5.157-1.03 6.112a9.905 9.905 0 0 0-.8-.872c-.543-.526-1.198-.934-1.89-1.258 1.483-1.05 2.8-2.673 3.72-3.982zm-18.716.002c.916 1.304 2.23 2.92 3.706 3.97-.7.33-1.36.744-1.892 1.283-.276.28-.533.57-.77.872-.55-.943-1.47-3.054-1.044-6.125zM11.21 22.77c-.09-.163-.063-.21-.04-.25.223-.39 1.387-1.006 3.61-1.233-.117.29-.218.582-.303.878-1.265.673-2.998 1.09-3.267.605zm21.558 2.96c-.252 1.312-1.058 3.353-1.646 4.843-.398 1.01-.61 1.552-.683 1.877l-.067.302.114.287c.283.71.71 1.907.772 2.35 0 .01.095.858-.65 1.716-.72.826-2.363 1.812-6.11 1.812-3.747 0-5.39-.986-6.11-1.812-.746-.857-.65-1.707-.65-1.716.062-.44.49-1.64.772-2.352l.114-.286-.066-.302c-.072-.326-.284-.87-.683-1.88-.587-1.49-1.392-3.53-1.645-4.842-.422-2.198.38-4.575 2.145-6.358 1.513-1.528 4.933-1.868 6.123-1.87 1.166 0 4.54.338 6.14 1.885 2.08 2.014 2.464 4.597 2.128 6.344zm5.02-2.96c-.262.48-1.973.07-3.237-.592a9.437 9.437 0 0 0-.296-.888c2.198.23 3.354.84 3.575 1.23.023.04.05.086-.04.25z"/></g></svg>