<svg xmlns="http://www.w3.org/2000/svg" width="61" height="61" viewBox="0 0 61 61"><circle fill="#FFF" cx="30.5" cy="30.5" r="30.5"/><g fill="#231F20"><path d="M19.985 18.27c-.915 2.683-1.718 5.384-2.472 8.094-.543-2.863-.92-5.756-.958-8.715-.005-.432-1.94-.11-1.932.517.052 4.243.8 8.354 1.747 12.432-1.196 4.58-2.31 9.18-3.58 13.77-.108.394 1.772.138 1.905-.344.902-3.265 1.726-6.535 2.556-9.8.806 3.204 1.645 6.407 2.274 9.657.098.508 2.04.045 1.932-.518-.864-4.462-2.12-8.836-3.146-13.247 1.068-4.086 2.202-8.157 3.578-12.19.124-.362-1.737-.146-1.903.342zM34.395 18.798c.05-1.047-1.92-.794-1.963.128-.004.08-.004.16-.008.238-.04.065-.084.128-.1.204-1.005 4.463-2.612 8.73-4.057 13.06-.644 1.93-1.14 3.898-1.666 5.856-.138-6.623-.134-13.237-.164-19.87-.005-1.043-1.965-.77-1.96.133.036 8.337.017 16.64.302 24.97a.644.644 0 0 0-.034.302c.02.147.042.296.064.444.123.856 1.96.48 1.944-.317.005-.01.016-.018.02-.03 1.637-4.17 2.48-8.59 3.895-12.837.52-1.558 1.048-3.108 1.56-4.662-.07 5.987.06 11.97.212 17.96.025 1.013 1.58.772 1.91.066l.055-.12c.112-.238.088-.422-.015-.557-.21-8.333-.39-16.635.005-24.97zM47.32 17.66c-3.158.38-6.312.227-9.478.048-.49-.028-2.24.85-1.22.908 1.092.062 2.18.11 3.27.145-.093.082-.16.168-.157.266.295 8.408-1.054 17.24.19 25.564.064.424 2.01.005 1.933-.518-1.23-8.23.07-16.95-.185-25.27 1.776.012 3.55-.052 5.33-.266.857-.102 1.67-1.04.317-.876z"/></g></svg>