<svg xmlns="http://www.w3.org/2000/svg" width="49" height="49" viewBox="0 0 49 49"><g fill="#323232"><path d="M24.5 0C10.97 0 0 10.97 0 24.5S10.97 49 24.5 49 49 38.03 49 24.5 38.03 0 24.5 0zm0 47C12.093 47 2 36.906 2 24.5 2 12.093 12.093 2 24.5 2 36.906 2 47 12.093 47 24.5 47 36.906 36.906 47 24.5 47z"/><path d="M34.807 26.756c-.45-9.493-9.197-18.693-9.586-19.097-.014-.016-.032-.024-.047-.038a.942.942 0 0 0-.118-.09.945.945 0 0 0-.13-.077c-.018-.01-.032-.022-.05-.03-.028-.01-.057-.01-.084-.02a.898.898 0 0 0-.296-.044.957.957 0 0 0-.292.046c-.025.01-.052.01-.076.02-.018.006-.03.02-.05.028a.896.896 0 0 0-.132.08.95.95 0 0 0-.118.09c-.015.013-.033.02-.046.036-.39.404-9.14 9.608-9.587 19.105-.008.067-.017.133-.01.202a14.7 14.7 0 0 0-.004 1.09c.368 10.257 9.977 12.82 10.074 12.846a.995.995 0 0 0 .494 0c.097-.024 9.706-2.59 10.074-12.845.013-.363.01-.727-.003-1.09.005-.072-.005-.14-.013-.212zM16.783 23.25c2.22 2.058 5.368 3.52 6.717 4.09v4.553c-2.448-1.196-6.22-3.34-7.302-5.228.07-1.143.28-2.287.585-3.415zm2.024-5.096c1.513 1.688 3.602 2.646 4.693 3.06v3.94c-1.654-.76-4.424-2.217-6.016-4.044a29.164 29.164 0 0 1 1.323-2.956zm12.71 2.954c-1.59 1.824-4.36 3.283-6.017 4.044v-3.94c1.092-.412 3.183-1.37 4.695-3.06.49.948.935 1.94 1.323 2.956zm-6.017-2.06v-8.01a45.24 45.24 0 0 1 3.65 5.23c-.952 1.374-2.535 2.276-3.65 2.78zm0 12.845V27.34c1.35-.568 4.5-2.033 6.72-4.09.304 1.127.514 2.272.583 3.416-1.083 1.883-4.855 4.03-7.303 5.227zm-2-12.843c-1.113-.5-2.694-1.4-3.65-2.78a45.38 45.38 0 0 1 3.65-5.228v8.008zm-7.117 10.775c2.328 1.983 5.69 3.63 7.117 4.28v4.404c-2.092-.905-6.162-3.332-7.117-8.685zM25.5 38.52v-4.414c1.428-.653 4.792-2.3 7.12-4.284-.95 5.41-5.02 7.813-7.12 8.7z"/></g></svg>