<svg xmlns="http://www.w3.org/2000/svg" width="154" height="64" viewBox="0 0 154 64"><g fill="#FFF"><path d="M59.292 42.755c-.833-.25-2.153.373-2.153.373S54.11 45.64 39.3 42.75c-10.91-2.13-16.584-1.917-16.584-1.917s1.833-12.5 1.333-16c0 0 0-.917-1.084-.917s-1.75.417-1.75 1 .167 4.417-.25 7.083c0 0-1.417 4.25-6.167 3.916s-5.75-3.75-6.168-6.083-.666-8.833.584-11.5c0 0 7.167.25 11.667-3.583s4.25-7.167 2.083-8.583S15.883 5 12.05 8.5s-5.084 7-5.084 7-5.625-1.208-4.333-7.083C3.983 2.277 12.393 3 12.393 3c1.75.333 1.823.5 2.406-.083S15.8.834 13.05.75 2.05 2.02.465 7.5C-1.22 13.328 1.9 17.497 6.088 18.143c0 0-2.288 10.107.545 15.107s6.94 4.917 8.595 4.917 4.572-.916 5.405-2.25c0 0-.393 3.58-.724 4.88 0 0-6.936-.095-9.11 1.036-3.688 1.917-2.917 6.48-1.5 8.104 1.204 1.38 4.812 2.125 7.417.896 2.705-1.277 4.865-3.74 5.55-7.697 0 0 6.367-.47 12.533 1.364s14.756 3.556 17.34 3.556 8.046-.738 8.327-2.89c.186-1.437-.342-2.16-1.175-2.41zM15.862 9.328s3.28-2.5 4.844-.938c0 0 1.25 1.28.094 2.812-.656.87-2.396 3.59-10.656 4.938 0 0 2.593-4.562 5.718-6.812zm.265 38.906s-4.53 2.47-5.047-.875c-.333-2.16.89-3.18 1.687-3.57s1.875-.88 6.58-.712c0 0 0 3.328-3.22 5.156z"/><path d="M73.576 24.477c0 2.256 0 4.513-.002 6.77-.007.038-.02.075-.02.115-.036.93-.42 1.734-.862 2.537a5.56 5.56 0 0 1-1.18 1.462c-.533.47-.877-.564-1.078-.985-1.39-2.915-.726-6.812-.187-9.862.257-1.454-2.706-1.077-2.936.222-.333 1.888-.868 5.118-.546 7.906-.587.1-1.167.366-1.34.737-.512 1.088-2.01 4.704-3.834 3.258-1.32-1.046-1.46-3.743-1.6-5.268-.19-2.11.154-4.267.816-6.266-.058.173 1.14-2.823 1.67-1.703.326.69.032 2.642-.608 3.123-1.57 1.182.875 1.67 1.824.956 1.802-1.357 3.05-5.71-.074-6.233-3.464-.58-5.438 2.923-6.163 5.697-.335 1.28-.563 3.074-.504 4.886-.48.832-2.096 3.533-3.046 4.026-1.125.584-1.104-.23-1.062-.75s.542-5.146.813-8.27c.175-2.015-.062-2.772-.5-3.647s-3.994-2.826-7.146.832c-2.184 2.534-2.913 4.927-3.08 7.054-.214.425-.444.873-.71 1.362-1.5 2.75-3.385 3.91-4.063 2-.594-1.672-.906-3.703-.75-6.188.005-.088 3.5-5 5.062-11.75s1.25-10.062.437-10.625-4.25-1.938-6.312 6.25c-1.523 6.047-2.137 12.5-1.565 17.88-.317.683-.72 1.498-1.23 2.433-1.5 2.75-3.383 3.91-4.06 2-.595-1.672-.907-3.703-.75-6.188.004-.088 3.5-5 5.06-11.75s1.25-10.062.44-10.625-4.25-1.938-6.313 6.25-2.465 17.126-.5 23.125c0 0 1.08 3.375 3.103 3.125 1.67-.207 3.656-1.846 4.83-4.906.143.614.3 1.214.486 1.78 0 0 1.08 3.375 3.103 3.125 1.375-.17 2.963-1.32 4.14-3.423.71 1.84 2.238 3.34 4.212 2.985 2.667-.48 3.218-1.932 3.218-1.932s-.05 2.383 1.657 2.383c1.525 0 2.73-.89 3.938-3.16.41-.77.642-1.217.773-1.48.356 2.144 1.24 4.055 3.018 4.83 2.976 1.298 5.62-1.172 7.167-3.608.473 1.2 1.24 2.156 2.46 2.616 1.34.505 2.66.013 3.773-.928-.005 1.173-.016 2.346-.026 3.52-.584 0-1.24.142-1.547.414-3.203 2.825-4.598 6.24-4.195 10.52.233 2.48 2.576 3.598 4.725 2.663 3.1-1.35 3.57-6.02 3.83-8.836.625-6.83.14-13.94.14-20.792 0-1.293-2.907-.702-2.907.33zM30.252 13.28c.688-2.655 1.33-3.718 1.954-3.718s.938.72.47 3-1.988 8.626-4.095 12.75c0 0 .984-9.374 1.672-12.03zm8.418 0c.688-2.655 1.33-3.718 1.954-3.718s.938.72.47 3-1.988 8.626-4.095 12.75c0 0 .983-9.374 1.67-12.03zM51.53 25.71c-.075.58-.46 4.292-.96 6.292s-.953 2.78-2.583 3.438c-1.704.688-2.438-1.418-2.438-1.418-1.147-3.208.395-6.042 1.666-7.92s2.573-2.095 3.312-1.954a1.36 1.36 0 0 1 1 1.562zM73.5 43.764c-.037 2.683-.38 5.377-1.578 7.81-.7.146-1.03-.117-1.24-1.237-.148-1.09-.13-2.174.05-3.25.24-2.022 1.382-3.737 2.783-5.154-.007.61-.005 1.22-.014 1.83zM92.3 21.65c-2.54-1.23-4.81-3.29-5.714-6C85.306 11.82 89.514 9 92.86 9.174c3.49.18 5.138 3.625 4.968 6.71-.06 1.094-.748 3.556-2.096 2.276-.95-.905-1.37-2.374-1.566-3.63-.19-1.21-3.1-.496-2.898.775.578 3.657 4.527 7.69 7.898 3.863 3.014-3.418 1.656-9.462-2.574-11.233-4.523-1.893-10.135.077-12.53 4.327-2.73 4.85 2.75 9.598 6.63 11.32 6.225 3.34 6.455 14.055-1.818 14.127-3.43.03-6.62-2.44-7.693-5.61-.57-1.688-.278-7.553 2.015-8.003 1.807-.354 1.31-2.04-.453-1.693-3.713.727-5.08 5.515-4.72 8.858.575 5.34 5.577 8.34 10.63 8.295 4.682-.04 8.654-2.93 9.625-7.55.938-4.48-1.912-8.767-5.976-10.358z"/><path d="M110.88 37.532c-2.854-1.552-1.222-7.563-.79-9.875.28-1.492 1.555-3.794-.494-4.296-2.385-.583-5.223 1.688-7.277 3.86.01-2.507.17-5 .552-7.48 3.088-1.575 5.4-3.82 7.182-7.394 1.295-2.604 1.94-7.97-2.46-6.422-3.987 1.403-5.378 6.017-6.62 9.688a29.258 29.258 0 0 0-1.094 4.378c-.398.16-.803.312-1.22.44-1.657.512-1.44 1.407.24.89.274-.085.542-.173.808-.263-.793 5.612-.256 11.49.248 17.02.05.54 2.97 0 2.898-.777-.227-2.468-.414-4.922-.496-7.364.283-.104.52-.236.633-.387.89-1.176 1.983-2.204 3.08-3.178.3-.26.606-.513.92-.755.155-.113.308-.226.46-.34.674-.53.8-.542.38-.04-.06.917-.458 1.93-.624 2.833-.55 2.992-2.127 8.89 1.346 10.775.745.403 3.43-.715 2.33-1.313zm-6.485-24.1c.305-.898.715-1.77 1.094-2.637.472-1.082 1.73-4.768 2.644-3.004.73 1.405-.426 3.718-.938 5.068-.83 2.185-2.254 3.95-4.047 5.297.31-1.58.713-3.155 1.245-4.724z"/><path d="M121.635 30.527c.006-3.288-.375-7.506-4.303-7.863-4.31-.392-6.006 4.123-6.064 7.49-.004.274.135.456.35.57-.004 3.15.76 7.26 4.508 7.196 4.18-.068 5.505-3.714 5.51-7.393zm-4.998 5.475c-2.44-.97-2.22-5.203-2.053-7.24a.542.542 0 0 0-.246-.525c.3-2.017 1.082-5.03 2.863-3.506 1.417 1.212 1.446 4.15 1.522 5.836.053 1.144-.105 6.224-2.085 5.436zM153.135 48.58c-1.127-2.886-3.588-3.994-6.293-4.128a12.032 12.032 0 0 0-1.133-2.076c-3.91-5.788-13.19-5.02-19.476-1.948-.04-.913-.09-1.824-.13-2.73 2.534.127 5-.852 6.503-2.997 1.676-2.394 1.434-6.63.777-9.313-.62-2.525-3.088-2.072-4.93-1.234-.656.298-1.28.744-1.865 1.26.054-.67.11-1.344.16-2.013.11-1.542-2.843-1.153-2.942.203-.453 6.196-.297 12.366-.44 18.54-4.272 3.862-5.35 7.5-5.392 12.06-.02 2.27 1.934 3.96 3.982 2.386 2.895-2.225 3.77-6.63 4.172-9.985.178-1.49.197-3.01.16-4.528 4.49-2.94 10.635-3.15 15.205-.1.938.626 1.71 1.594 2.262 2.696-1.688.3-3.31.855-4.613 1.482-1.713.825-4.256 2.765-4.13 4.936.097 1.69 1.028 2.64 2.282 2.98.078.033.17.063.3.084 6.134.995 10.702-2.626 9.827-7.737 2.984 1.625 4.107 5.405 3.043 8.66-2.387 7.304-11.584 8.932-16.95 4.054-.573-.522-3.183.578-2.728.993 7.786 7.076 27.058.53 22.347-11.543zm-29.944-1.775c-.1 1.738-.458 3.55-1.144 5.143a22.06 22.06 0 0 1-.8 1.598s-.26.064-.317-.717c.024-2.86.808-5.578 2.345-7.893-.025.623-.048 1.245-.084 1.868zm3.13-17.858c.06-.055.11-.11.146-.172.516-.917 1.207-1.728 1.908-2.507.527-.586 1.12-1.138 1.803-1.54.324.163.654.992.777 2.132.303 2.772.44 10.096-3.945 9.407-.21-.033-.57.043-.948.17V36.4c-.06-2.48.075-4.968.258-7.453zM139.4 52.69c-.016-.002-.037 0-.055-.002-1.69-.398-1.502-1.99-1.29-3.086.493-2.524 3.577-3.883 6.118-3.96 1.284 3.568.296 7.87-4.773 7.05z"/></g></svg>