<svg xmlns="http://www.w3.org/2000/svg">
  <symbol id="search" viewBox="0 0 17 17">
    <path d="M16.958 15.527L11.75 10.32A6.455 6.455 0 0 0 13 6.5 6.5 6.5 0 1 0 6.5 13a6.465 6.465 0 0 0 3.84-1.263l5.204 5.204 1.414-1.413zM6.5 11C4.02 11 2 8.98 2 6.5S4.02 2 6.5 2 11 4.02 11 6.5 8.98 11 6.5 11z"/>
  </symbol>
  <symbol id="enter" viewBox="0 0 21 19">
    <path d="M6 14.875L12.917 9.5 6 4.125v2.917H-.042v4.917H6z"/>
    <path d="M18 0H5C3.9 0 3 .9 3 2v2h2V2h13v15H5v-2H3v2c0 1.1.9 2 2 2h13c1.1 0 2-.9 2-2V2c0-1.1-.9-2-2-2z"/>
  </symbol>
  <symbol id="cart" viewBox="0 0 21 20">
    <path d="M5.657 2.03L5.422 0H0v2h3.64l1.5 13h13.988l1.7-12.97H5.657zM17.372 13H6.922L5.888 4.03h12.66L17.372 13z"/>
    <circle cx="6.984" cy="18" r="2"/>
    <circle cx="15.984" cy="18" r="2"/>
  </symbol>
  <symbol id="twitter" viewBox="0 0 32 32">
    <path d="M16 0C7.164 0 0 7.164 0 16c0 8.837 7.164 16 16 16 8.837 0 16-7.163 16-16 0-8.836-7.163-16-16-16zm7.944 12.81c-.25 6.515-3.463 10.83-10.992 10.7h-.487c-.447 0-4.543-.442-5.344-1.822 2.48.19 4.247-.406 5.12-1.136-1.048-.29-2.923-.46-3.25-2.848.383.104.617.22 1.298.113-1.307-.824-2.758-1.52-2.68-3.643.312.317 1.165.518 1.46.457-.767-.232-2.148-3.243-.973-4.78 1.984 1.79 4.075 3.482 7.804 3.643.228-2.214 1.24-3.7 3.17-4.325 1.84-.48 3.254.26 3.9 1.138.737-.224 1.453-.466 2.193-.685-.004.834-.57 1.464-.935 1.71.747.165 1.423-.475 1.423-.475-.183.963-1.093 1.725-1.706 1.954z"/>
  </symbol>
  <symbol id="instagramm" viewBox="0 0 32 32">
    <path d="M20.916 16c0 2.728-2.21 4.938-4.938 4.938s-4.94-2.21-4.94-4.938c0-.394.052-.773.14-1.14h-.898v6.838h11.396V14.86h-.897c.085.367.136.746.136 1.14z"/>
    <path d="M15.978 18.66c1.466 0 2.66-1.194 2.66-2.66s-1.194-2.66-2.66-2.66c-1.466 0-2.66 1.194-2.66 2.66s1.193 2.66 2.66 2.66zM18.637 10.302h3.04v3.04h-3.04z"/>
    <path d="M16 0C7.164 0 0 7.164 0 16c0 8.837 7.164 16 16 16 8.837 0 16-7.163 16-16 0-8.836-7.163-16-16-16zm7.955 21.698a2.285 2.285 0 0 1-2.28 2.28H10.28A2.285 2.285 0 0 1 8 21.697V10.302a2.286 2.286 0 0 1 2.28-2.28h11.395a2.286 2.286 0 0 1 2.28 2.28v11.396z"/>
  </symbol>
  <symbol id="facebook" viewBox="0 0 32 32">
    <path d="M16 0C7.164 0 0 7.163 0 16s7.164 16 16 16c8.837 0 16-7.164 16-16S24.837 0 16 0zm4.062 9.455h-3.02V12.9h3.02v3.444h-3.02v8.61H14.02v-8.61H11V12.9h3.02V9.454c0-1.902 1.354-3.445 3.022-3.445h3.02v3.445z"/>
  </symbol>
  <symbol id="vkontakte" viewBox="0 0 32 32">
    <path d="M16.637 14.495c.402-.02.72-.082.95-.188.327-.145.54-.33.642-.56.1-.228.15-.495.15-.796 0-.23-.06-.464-.175-.696-.116-.232-.322-.405-.617-.517-.264-.1-.592-.155-.984-.165-.392-.01-.943-.014-1.652-.014h-.34v2.965h.566c.57 0 1.057-.01 1.46-.028zM18.118 17.084c-.282-.08-.672-.125-1.166-.132a127.97 127.97 0 0 0-1.55-.01h-.79v3.494h.264c1.014 0 1.74-.003 2.18-.01a3.2 3.2 0 0 0 1.212-.244c.377-.157.633-.364.774-.625s.214-.562.214-.9c0-.446-.088-.788-.26-1.03-.17-.24-.465-.423-.878-.543z"/>
    <path d="M16 0C7.164 0 0 7.164 0 16c0 8.837 7.164 16 16 16 8.837 0 16-7.163 16-16 0-8.836-7.163-16-16-16zm6.602 20.53a3.73 3.73 0 0 1-1.124 1.328c-.552.415-1.16.71-1.823.886s-1.5.264-2.52.264h-6.12V8.988h5.443c1.13 0 1.957.037 2.48.112a5.126 5.126 0 0 1 1.56.5c.534.27.93.632 1.19 1.087.26.455.392.975.392 1.558 0 .678-.18 1.278-.536 1.795-.358.518-.863.92-1.517 1.208v.075c.917.182 1.642.56 2.18 1.13.536.57.806 1.325.806 2.26 0 .68-.138 1.284-.41 1.818z"/>
  </symbol>
</svg>
