<svg xmlns="http://www.w3.org/2000/svg" width="80" height="140" viewBox="0 0 80 140"><path fill="#E84D37" d="M40 7.1c15.622 0 28.285 12.665 28.285 28.287 0 5.112-1.362 9.902-3.734 14.04 4.504.644 7.972 4.507 7.972 9.19a9.292 9.292 0 0 1-9.293 9.292c-4.683 0-8.546-3.468-9.19-7.972-.352.2-.708.396-1.07.583-1.01 6.26-6.425 11.046-12.97 11.046-6.546 0-11.96-4.786-12.972-11.046-.36-.187-.717-.38-1.07-.582-.643 4.504-4.504 7.97-9.187 7.97-5.13 0-9.29-4.16-9.29-9.292 0-4.682 3.465-8.544 7.97-9.188a28.146 28.146 0 0 1-3.736-14.04C11.714 19.764 24.378 7.1 40 7.1m0-7C20.543.1 4.714 15.93 4.714 35.388c0 3.646.568 7.263 1.668 10.713C2.762 49.116.48 53.652.48 58.615.48 67.6 7.787 74.91 16.77 74.91c3.158 0 6.142-.926 8.673-2.53 3.68 3.846 8.86 6.187 14.557 6.187s10.875-2.34 14.556-6.187a16.18 16.18 0 0 0 8.673 2.53c8.983 0 16.292-7.31 16.292-16.295 0-4.962-2.284-9.5-5.903-12.516a35.317 35.317 0 0 0 1.666-10.714C75.286 15.93 59.456.1 40 .1z"/><path fill="#E84D37" d="M63.23 78.908c-2.836 0-5.56-.598-8.04-1.68-.372.3-.762.573-1.15.85l.525.525-3.898 3.898-1.673-1.672c-.687.273-1.386.517-2.1.728l2.358 2.36-3.898 3.897-3.898-3.898 1.556-1.556c-.99.12-1.99.205-3.01.205-.99 0-1.96-.08-2.918-.194l1.543 1.545-3.898 3.898-3.9-3.898 2.34-2.34c-.716-.21-1.417-.45-2.104-.724l-1.65 1.65-3.897-3.898.49-.49c-.406-.287-.812-.574-1.198-.886a20.06 20.06 0 0 1-8.04 1.68c-.203 0-.4-.023-.602-.03-.07.532-.032 1.084.16 1.623l20.375 57.124c.024.068.06.128.087.193.03.07.058.14.092.206.07.14.15.27.237.397.03.042.055.087.085.13.125.165.262.32.412.458.032.03.07.055.103.084.125.107.254.205.392.294.058.037.118.07.18.104.137.077.278.145.425.202.038.015.07.038.108.052.02.007.04.01.06.016.126.043.257.074.39.103.055.012.11.03.164.038.184.03.372.05.56.05s.378-.02.563-.05c.057-.008.113-.026.17-.04.13-.026.26-.057.384-.1.02-.007.04-.01.06-.016.04-.014.073-.037.112-.053.144-.057.284-.123.42-.2a3.34 3.34 0 0 0 .183-.105c.136-.088.265-.186.388-.29.035-.03.073-.057.106-.087.15-.14.287-.294.412-.46.03-.04.054-.084.082-.125.088-.128.17-.26.24-.4.033-.067.062-.135.09-.202.028-.065.064-.127.09-.196L63.67 80.5c.192-.54.23-1.09.16-1.622-.202.006-.4.03-.603.03zM49.25 94.54l-3.898 3.9-3.898-3.9 3.898-3.897 3.898 3.898zm-13.11 5.314l3.9-3.898 3.897 3.898-3.9 3.898-3.897-3.898zm7.797 10.625l-3.9 3.897-3.897-3.898 3.898-3.9 3.9 3.9zm-3.9-25.15l3.9 3.898-3.9 3.898-3.897-3.898 3.898-3.898zm-1.413 9.21l-3.898 3.9-3.9-3.9 3.9-3.897 3.897 3.898zM23.724 80.398l.38-.38 3.898 3.898-2.23 2.23-2.048-5.748zm2.793 7.832l2.9-2.9 3.897 3.898-3.898 3.898-1.79-1.79-1.11-3.107zm2.794 7.83l.106-.104 3.898 3.898-1.954 1.954-2.05-5.747zm4.206 11.793l-1.413-3.96 2.625-2.625 3.898 3.898-3.898 3.898-1.212-1.21zm3.43 9.618l-1.862-5.222 3.543 3.543-1.68 1.68zM40 126.03l-2.31-6.475 2.35-2.35 2.29 2.29L40 126.03zm3.074-8.62l-1.62-1.62 3.416-3.414-1.796 5.034zm3.364-9.43l-1.085 1.084-3.898-3.898 3.898-3.898 2.564 2.564-1.48 4.147zm2.223-6.233l-1.893-1.894 3.898-3.898.046.045-2.05 5.747zm3.67-10.283l-1.664 1.663-3.898-3.898 3.898-3.9 2.838 2.84-1.175 3.294zm1.918-5.38l-2.168-2.168 3.898-3.898.32.32-2.05 5.746z"/></svg>