<svg xmlns="http://www.w3.org/2000/svg" width="560" height="220" viewBox="0 0 560 220"><path fill="#F8F7F4" d="M560 205c0 8.25-6.75 15-15 15H15c-8.25 0-15-6.75-15-15V15C0 6.75 6.75 0 15 0h530c8.25 0 15 6.75 15 15v190z"/><g fill="#F8F7F4"><path d="M545 0H20.73L0 20.73V205c0 8.25 6.75 15 15 15h530c8.25 0 15-6.75 15-15V15c0-8.25-6.75-15-15-15zM10.246.79A15.107 15.107 0 0 0 .79 10.246L10.246.79z"/></g><path fill="#92CDFF" d="M20.74 0H15c-1.655 0-3.245.283-4.737.784l-9.48 9.48A14.848 14.848 0 0 0 0 15v5.74L20.74 0z"/><path fill="#FE9E90" d="M0 40.116L40.116 0h-9.693L0 30.423z"/><path fill="#92CDFF" d="M0 59.504L59.504 0H49.81L0 49.81z"/><path fill="#FE9E90" d="M0 78.89L78.89 0h-9.693L0 69.197z"/><path fill="#92CDFF" d="M0 98.278L98.278 0h-9.694L0 88.584z"/><path fill="#FE9E90" d="M0 117.665L117.665 0h-9.694L0 107.97z"/><path fill="#92CDFF" d="M0 137.052L137.052 0h-9.694L0 127.358z"/><path fill="#FE9E90" d="M0 156.438L156.438 0h-9.693L0 146.745z"/><path fill="#92CDFF" d="M0 175.826L175.826 0h-9.693L0 166.134z"/><path fill="#FE9E90" d="M0 195.213L195.213 0h-9.693L0 185.52z"/><path fill="#92CDFF" d="M204.907 0L0 204.907V205c0 2.746.76 5.317 2.063 7.538L214.6 0h-9.693z"/><path fill="#FE9E90" d="M14.036 219.95L233.986 0h-9.693L6.775 217.52a14.89 14.89 0 0 0 7.26 2.43z"/><path fill="#92CDFF" d="M33.375 220l220-220h-9.695l-220 220z"/><path fill="#FE9E90" d="M52.762 220l220-220h-9.695l-220 220z"/><path fill="#92CDFF" d="M72.15 220L292.147 0h-9.694l-220 220z"/><path fill="#FE9E90" d="M91.536 220l220-220h-9.694l-220 220z"/><path fill="#92CDFF" d="M110.923 220l220-220h-9.694l-220 220z"/><path fill="#FE9E90" d="M130.31 220l220-220h-9.695l-220 220z"/><path fill="#92CDFF" d="M149.697 220l220-220h-9.694l-220 220z"/><path fill="#FE9E90" d="M169.084 220l220-220h-9.693l-220 220z"/><path fill="#92CDFF" d="M188.47 220L408.473 0h-9.695l-220 220z"/><path fill="#FE9E90" d="M207.858 220l220-220h-9.694l-220 220z"/><path fill="#92CDFF" d="M227.246 220l220-220h-9.694l-220 220z"/><path fill="#FE9E90" d="M246.632 220l220-220h-9.694l-220 220z"/><path fill="#92CDFF" d="M266.02 220l220-220h-9.695l-220 220z"/><path fill="#FE9E90" d="M285.406 220l220-220h-9.693l-220 220z"/><path fill="#92CDFF" d="M304.794 220l220-220H515.1l-220 220z"/><path fill="#FE9E90" d="M324.18 220l220-220h-9.694l-220 220z"/><path fill="#92CDFF" d="M343.568 220L557.22 6.35a15.177 15.177 0 0 0-5.137-4.558L333.873 220h9.695z"/><path fill="#FE9E90" d="M362.955 220L560 22.955V15c0-.555-.036-1.102-.096-1.642L353.262 220h9.693z"/><path fill="#92CDFF" d="M382.342 220L560 42.342v-9.694L372.648 220z"/><path fill="#FE9E90" d="M401.73 220L560 61.73v-9.693L392.036 220z"/><path fill="#92CDFF" d="M421.117 220L560 81.118v-9.696L411.423 220z"/><path fill="#FE9E90" d="M440.504 220L560 100.504V90.81L430.81 220z"/><path fill="#92CDFF" d="M459.892 220L560 119.892v-9.696L450.196 220z"/><path fill="#FE9E90" d="M479.278 220L560 139.278v-9.695L469.583 220z"/><path fill="#92CDFF" d="M498.665 220L560 158.665v-9.693L488.972 220z"/><path fill="#FE9E90" d="M518.052 220L560 178.052v-9.695L508.357 220z"/><path fill="#92CDFF" d="M537.438 220L560 197.438v-9.692L527.746 220z"/><path fill="#FE9E90" d="M559.798 207.335l-12.463 12.463c6.386-1.01 11.452-6.077 12.463-12.463z"/></svg>