<svg xmlns="http://www.w3.org/2000/svg" width="49" height="49" viewBox="0 0 49 49"><g fill="#323232"><path d="M24.5 0C10.97 0 0 10.97 0 24.5S10.97 49 24.5 49 49 38.03 49 24.5 38.03 0 24.5 0zm0 47C12.093 47 2 36.906 2 24.5 2 12.093 12.093 2 24.5 2 36.906 2 47 12.093 47 24.5 47 36.906 36.906 47 24.5 47z"/><path d="M28.938 13.125c0-2.774-2.257-5.03-5.03-5.03s-5.032 2.256-5.032 5.03v14.64a7.042 7.042 0 0 0-2 4.923c0 3.93 3.196 7.125 7.125 7.125s7.126-3.196 7.126-7.125c0-1.942-.802-3.79-2.188-5.126V13.125zm.187 19.563a5.126 5.126 0 0 1-10.25 0c0-1.647.792-3.098 2-4.035V13.125a3.03 3.03 0 0 1 6.062 0v15.372a5.114 5.114 0 0 1 2.188 4.19z"/><path d="M25 29.56V13.187a1 1 0 0 0-2 0v16.37a2.99 2.99 0 0 0-2 2.817 3 3 0 0 0 6 0 2.99 2.99 0 0 0-2-2.816zM31 12h6v2h-6zM31 16h6v2h-6zM31 20h6v2h-6zM31 24h6v2h-6z"/></g></svg>