<svg xmlns="http://www.w3.org/2000/svg" width="32" height="32" viewBox="0 0 32 32"><path fill="#FFF" d="M16 0C7.164 0 0 7.164 0 16c0 8.837 7.164 16 16 16 8.837 0 16-7.163 16-16 0-8.836-7.163-16-16-16zm7.944 12.81c-.25 6.515-3.463 10.83-10.992 10.7h-.487c-.447 0-4.543-.442-5.344-1.822 2.48.19 4.247-.406 5.12-1.136-1.048-.29-2.923-.46-3.25-2.848.383.104.617.22 1.298.113-1.307-.824-2.758-1.52-2.68-3.643.312.317 1.165.518 1.46.457-.767-.232-2.148-3.243-.973-4.78 1.984 1.79 4.075 3.482 7.804 3.643.228-2.214 1.24-3.7 3.17-4.325 1.84-.48 3.254.26 3.9 1.138.737-.224 1.453-.466 2.193-.685-.004.834-.57 1.464-.935 1.71.747.165 1.423-.475 1.423-.475-.183.963-1.093 1.725-1.706 1.954z"/></svg>