<svg xmlns="http://www.w3.org/2000/svg" width="32" height="32" viewBox="0 0 32 32"><g fill="#e9e9e9"><path d="M16.637 14.495c.402-.02.72-.082.95-.188.327-.145.54-.33.642-.56.1-.228.15-.495.15-.796 0-.23-.06-.464-.175-.696-.116-.232-.322-.405-.617-.517-.264-.1-.592-.155-.984-.165-.392-.01-.943-.014-1.652-.014h-.34v2.965h.566c.57 0 1.057-.01 1.46-.028zM18.118 17.084c-.282-.08-.672-.125-1.166-.132a127.97 127.97 0 0 0-1.55-.01h-.79v3.494h.264c1.014 0 1.74-.003 2.18-.01a3.2 3.2 0 0 0 1.212-.244c.377-.157.633-.364.774-.625s.214-.562.214-.9c0-.446-.088-.788-.26-1.03-.17-.24-.465-.423-.878-.543z"/><path d="M16 0C7.164 0 0 7.164 0 16c0 8.837 7.164 16 16 16 8.837 0 16-7.163 16-16 0-8.836-7.163-16-16-16zm6.602 20.53a3.73 3.73 0 0 1-1.124 1.328c-.552.415-1.16.71-1.823.886s-1.5.264-2.52.264h-6.12V8.988h5.443c1.13 0 1.957.037 2.48.112a5.126 5.126 0 0 1 1.56.5c.534.27.93.632 1.19 1.087.26.455.392.975.392 1.558 0 .678-.18 1.278-.536 1.795-.358.518-.863.92-1.517 1.208v.075c.917.182 1.642.56 2.18 1.13.536.57.806 1.325.806 2.26 0 .68-.138 1.284-.41 1.818z"/></g></svg>